<?xml version="1.0" encoding="utf-8"?>
<!-- Generator: Adobe Illustrator 26.0.1, SVG Export Plug-In . SVG Version: 6.00 Build 0)  -->
<svg version="1.1" id="Ebene_1" xmlns="http://www.w3.org/2000/svg" xmlns:xlink="http://www.w3.org/1999/xlink" x="0px" y="0px"
	 viewBox="0 0 80 48" style="enable-background:new 0 0 80 48;" xml:space="preserve">
<style type="text/css">
	.st0{fill:#FFFFFF;}
</style>
<g>
	<path class="st0" d="M27,9.7H6.5L6.3,9.5V9.3l0.2-0.2H27l0.2,0.2v0.2L27,9.7z M33.7,15c-2.9,0-4.6-1.5-4.6-3.6l0.2-0.2h2.5l0.2,0.2
		c0,0.8,0.6,1.1,1.7,1.1c1,0,1.7-0.2,1.7-0.8c0-0.8-0.8-0.8-2.1-1.1c-1.3-0.2-4-0.8-4-3.4c0-1.7,1.3-3.2,4.4-3.2
		c2.5,0,4.4,1.1,4.4,3.2l-0.2,0.2h-2.5l-0.2-0.2c0-0.4-0.4-0.6-1.5-0.6c-1,0-1.5,0.2-1.5,0.8c0,0.8,1.3,0.8,2.5,1.1
		c1.3,0.2,3.6,0.6,3.6,3.2C38.3,13.3,37.1,15,33.7,15z M44.2,11.6c0,0.4,0.2,0.6,0.6,0.6h1.9l0.2,0.2v2.1l-0.2,0.2h-1.9
		c-1.9,0-3.6-0.8-3.6-3.2V7L41,6.8h-1.5l-0.2-0.2V4.4l0.2-0.2H41L41.3,4V2.1l0.2-0.2H44l0.2,0.2V4l0.2,0.2h2.3l0.2,0.2v2.1l-0.2,0.2
		h-2.3L44.2,7V11.6z M58.2,14.8h-2.3l-0.2-0.2L55.5,14h-0.2c0,0-0.6,1.1-2.5,1.1c-2.9,0-4.8-2.3-4.8-5.5S49.8,4,52.8,4
		c1.9,0,2.5,1.1,2.5,1.1h0.2l0.2-0.6l0.2-0.2h2.3l0.2,0.2v10.2L58.2,14.8z M53.2,12.5c1.7,0,2.3-1.3,2.3-3s-0.6-3-2.3-3
		s-2.3,1.3-2.3,3S51.5,12.5,53.2,12.5z M64.9,4c1.9,0,2.7,1.1,2.7,1.1h0.2V0.2L68.1,0h2.5l0.2,0.2v14.4l-0.2,0.2h-2.3l-0.2-0.2
		L67.9,14h-0.2c0,0-0.8,1.1-2.7,1.1c-2.5,0-4.6-2.1-4.6-5.5C60.3,6.1,62.4,4,64.9,4z M65.6,12.5c1.7,0,2.3-1.3,2.3-3s-0.6-3-2.3-3
		c-1.7,0-2.3,1.3-2.3,3C63.2,11.2,63.9,12.5,65.6,12.5z M77.3,11.6c0,0.4,0.2,0.6,0.6,0.6h1.9l0.2,0.2v2.1l-0.2,0.2h-1.9
		c-1.9,0-3.6-0.8-3.6-3.2V7l-0.2-0.2h-1.5l-0.2-0.2V4.4l0.2-0.2h1.5L74.3,4V2.1l0.2-0.2H77l0.2,0.2V4l0.2,0.2h2.3L80,4.4v2.1
		l-0.2,0.2h-2.3L77.3,7V11.6z"/>
	<g>
		<path class="st0" d="M15.7,31.3h-2.5L13,31.1V25c0-1.1-0.4-1.9-1.7-1.9s-1.9,0.8-1.9,2.3v5.7l-0.2,0.2H6.7l-0.2-0.2V25
			c0-1.1-0.4-1.9-1.7-1.9s-1.9,0.8-1.9,2.3v5.7l-0.2,0.2H0.2L0,31.1V20.9l0.2-0.2h2.3l0.2,0.2l0.2,0.6h0.2c0,0,0.6-1.1,2.5-1.1
			c1.7,0,2.5,0.8,2.9,1.5h0.2c0,0,0.8-1.5,3.1-1.5c2.5,0,4,1.5,4,4.2V31L15.7,31.3z"/>
		<path class="st0" d="M18.2,20.7h2.5l0.2,0.2V27c0,1.1,0.4,1.9,1.7,1.9c1.5,0,2.1-1.1,2.1-2.5v-5.5l0.2-0.2h2.5l0.2,0.2v10.2
			l-0.2,0.2h-2.3l-0.2-0.2l-0.2-0.6h-0.2c0,0-0.6,1.1-2.5,1.1c-2.5,0-4-1.7-4-4.2V21L18.2,20.7z"/>
		<path class="st0" d="M34.1,31.5c-2.9,0-4.6-1.5-4.6-3.6l0.2-0.2h2.5l0.2,0.2c0,0.8,0.6,1.1,1.7,1.1c1,0,1.7-0.2,1.7-0.8
			c0-0.8-0.8-0.8-2.1-1.1c-1.3-0.2-4-0.8-4-3.4c0-1.7,1.3-3.2,4.4-3.2c2.5,0,4.4,1.1,4.4,3.2l-0.2,0.2h-2.5l-0.2-0.2
			c0-0.4-0.4-0.6-1.5-0.6c-1,0-1.5,0.2-1.5,0.8c0,0.8,1.3,0.8,2.5,1.1c1.3,0.2,3.6,0.6,3.6,3.2C38.7,29.8,37.5,31.5,34.1,31.5z"/>
		<path class="st0" d="M50.1,26.9l-0.2,0.2h-6.5l-0.2,0.2c0,0.4,0.4,1.7,2.1,1.7c0.6,0,1.3-0.2,1.5-0.6l0.2-0.2h2.5l0.2,0.2
			c-0.2,1.3-1.3,3.2-4.4,3.2C41.7,31.5,40,29,40,26s1.7-5.5,5-5.5c3.4,0,5,2.5,5,5.5L50.1,26.9L50.1,26.9z M46.9,24.7
			c0-0.2-0.2-1.7-1.9-1.7s-1.9,1.5-1.9,1.7l0.2,0.2h3.4L46.9,24.7z"/>
		<path class="st0" d="M51.9,20.7h2.5l0.2,0.2V27c0,1.1,0.4,1.9,1.7,1.9c1.5,0,2.1-1.1,2.1-2.5v-5.5l0.2-0.2h2.5l0.2,0.2v10.2
			l-0.2,0.2h-2.3l-0.2-0.2l-0.2-0.6h-0.2c0,0-0.6,1.1-2.5,1.1c-2.5,0-4-1.7-4-4.2V21L51.9,20.7z"/>
		<path class="st0" d="M79.6,31.3h-2.5l-0.2-0.2V25c0-1.1-0.4-1.9-1.7-1.9s-1.9,0.8-1.9,2.3v5.7l-0.2,0.2h-2.5l-0.2-0.2V25
			c0-1.1-0.4-1.9-1.7-1.9s-1.9,0.8-1.9,2.3v5.7l-0.2,0.2h-2.5l-0.2-0.2V20.9l0.2-0.2h2.3l0.2,0.2l0.2,0.6H67c0,0,0.6-1.1,2.5-1.1
			c1.7,0,2.5,0.8,2.9,1.5h0.2c0,0,0.8-1.5,3.1-1.5c2.5,0,4,1.5,4,4.2V31L79.6,31.3z"/>
	</g>
	<path class="st0" d="M34.8,47.8h-2.3l-0.2-0.2L32,46.9h-0.2c0,0-0.6,1.1-2.5,1.1c-2.9,0-4.8-2.3-4.8-5.5s1.9-5.5,4.8-5.5
		c1.9,0,2.5,1.1,2.5,1.1H32l0.2-0.6l0.2-0.2h2.3l0.2,0.2v10.2L34.8,47.8z M29.7,45.5c1.7,0,2.3-1.3,2.3-3s-0.6-3-2.3-3
		c-1.7,0-2.3,1.3-2.3,3C27.4,44.2,28.1,45.5,29.7,45.5z M47.1,47.8h-2.3l-0.2-0.2L44.4,47h-0.2c0,0-0.6,1.1-2.5,1.1
		c-2.9,0-4.8-2.3-4.8-5.5s1.9-5.5,4.8-5.5c1.9,0,2.5,1.1,2.5,1.1h0.2l0.2-0.6l0.2-0.2h2.3l0.2,0.2v10.2H47.1z M42.1,45.5
		c1.7,0,2.3-1.3,2.3-3s-0.6-3-2.3-3s-2.3,1.3-2.3,3S40.4,45.5,42.1,45.5z M56.5,39.7H55c-1.7,0-2.3,0.8-2.3,2.8v5.1l-0.2,0.2H50
		l-0.2-0.2V37.4l0.2-0.2h2.3l0.2,0.2l0.2,0.6H53c0,0,0.4-0.8,2.3-0.8h1.3l0.2,0.2v2.1L56.5,39.7z M67.4,47.8h-2.3l-0.2-0.2L64.7,47
		h-0.2c0,0-0.6,1.1-2.5,1.1c-2.9,0-4.8-2.3-4.8-5.5s1.9-5.5,4.8-5.5c1.9,0,2.5,1.1,2.5,1.1h0.2l0.2-0.6l0.2-0.2h2.3l0.2,0.2v10.2
		H67.4z M62.4,45.5c1.7,0,2.3-1.3,2.3-3s-0.6-3-2.3-3s-2.3,1.3-2.3,3C60.1,44.2,60.7,45.5,62.4,45.5z M70.2,37.2h2.5l0.2,0.2v6.1
		c0,1.1,0.4,1.9,1.7,1.9c1.5,0,2.1-1.1,2.1-2.5v-5.5l0.2-0.2h2.5l0.2,0.2v10.2l-0.2,0.2h-2.3l-0.2-0.2L76.7,47h-0.2
		c0,0-0.6,1.1-2.5,1.1c-2.5,0-4-1.7-4-4.2v-6.4L70.2,37.2z"/>
</g>
</svg>
